<?xml version="1.0" encoding="UTF-8" standalone="no"?>
<!-- Created with Inkscape (http://www.inkscape.org/) -->
<svg
   xmlns:svg="http://www.w3.org/2000/svg"
   xmlns="http://www.w3.org/2000/svg"
   version="1.0"
   width="485"
   height="726.21094"
   id="svg2">
  <defs
     id="defs4" />
  <g
     transform="translate(-117.5,-89.862183)"
     id="layer1">
    <g
       id="g3533">
      <path
         d="M 220,92.362186 C 440,92.362183 500,92.362183 500,92.362183 L 500,212.36218 L 220,212.36218 M 220,92.362183 L 220,212.36218"
         id="path2385"
         style="fill:none;fill-rule:evenodd;stroke:#000000;stroke-width:8;stroke-linecap:round;stroke-linejoin:miter;stroke-miterlimit:4;stroke-dasharray:none;stroke-opacity:1" />
      <path
         d="M 460,92.362183 L 460,212.36218"
         id="path2389"
         style="fill:none;fill-rule:evenodd;stroke:#000000;stroke-width:8;stroke-linecap:butt;stroke-linejoin:miter;stroke-miterlimit:4;stroke-dasharray:none;stroke-opacity:1" />
      <path
         d="M 260,92.362183 L 260,212.36218"
         id="path2393"
         style="fill:none;fill-rule:evenodd;stroke:#000000;stroke-width:8;stroke-linecap:butt;stroke-linejoin:miter;stroke-miterlimit:4;stroke-dasharray:none;stroke-opacity:1" />
      <path
         d="M 220,152.36218 C 120,152.36218 120,152.36218 120,152.36218"
         id="path2395"
         style="fill:none;fill-rule:evenodd;stroke:#000000;stroke-width:8;stroke-linecap:butt;stroke-linejoin:miter;stroke-miterlimit:4;stroke-dasharray:none;stroke-opacity:1" />
      <path
         d="M 500,152.36218 C 600,152.36218 600,152.36218 600,152.36218"
         id="path2397"
         style="fill:none;fill-rule:evenodd;stroke:#000000;stroke-width:8;stroke-linecap:butt;stroke-linejoin:miter;stroke-miterlimit:4;stroke-dasharray:none;stroke-opacity:1" />
    </g>
    <g
       id="g3529">
      <path
         d="M 220,352.36218 C 440,352.36217 500,352.36217 500,352.36217 L 500,472.36217 L 220,472.36217 M 220,352.36217 L 220,472.36217"
         id="path2399"
         style="fill:none;fill-rule:evenodd;stroke:#000000;stroke-width:8;stroke-linecap:round;stroke-linejoin:miter;stroke-miterlimit:4;stroke-dasharray:none;stroke-opacity:1" />
      <path
         d="M 600,412.36217 C 500,412.36217 120,412.36217 120,412.36217"
         id="path2403"
         style="fill:none;fill-rule:evenodd;stroke:#000000;stroke-width:8;stroke-linecap:butt;stroke-linejoin:miter;stroke-miterlimit:4;stroke-dasharray:none;stroke-opacity:1" />
    </g>
    <g
       id="g3526">
      <path
         d="M 220,672.36218 C 120,672.36218 120,672.36218 120,672.36218 M 360,672.36218 C 360,672.36218 360,672.36218 360,672.36218 L 360,672.36218 C 360,711.00218 328.64,742.36218 290,742.36218 C 251.36,742.36218 220,711.00218 220,672.36218 M 360,672.36218 C 360,672.36218 360,672.36218 360,672.36218 C 360,633.72218 391.36,602.36218 430,602.36218 C 468.64,602.36218 500,633.72218 500,672.36218 M 600,672.36218 C 500,672.36218 500,672.36218 500,672.36218"
         id="path2407"
         style="fill:none;fill-rule:evenodd;stroke:#000000;stroke-width:8;stroke-linecap:round;stroke-linejoin:miter;stroke-miterlimit:4;stroke-dasharray:none;stroke-opacity:1" />
    </g>
    <text
       x="120"
       y="292.36218"
       id="text3217"
       xml:space="preserve"
       style="font-size:40px;font-style:normal;font-weight:normal;fill:#000000;fill-opacity:1;stroke:none;stroke-width:1px;stroke-linecap:butt;stroke-linejoin:miter;stroke-opacity:1;font-family:Bitstream Vera Sans"><tspan
         x="120"
         y="292.36218"
         id="tspan3219">IEC</tspan><tspan
         x="120"
         y="342.36218"
         id="tspan3221" /></text>
    <text
       x="120"
       y="552.36218"
       id="text3223"
       xml:space="preserve"
       style="font-size:40px;font-style:normal;font-weight:normal;fill:#000000;fill-opacity:1;stroke:none;stroke-width:1px;stroke-linecap:butt;stroke-linejoin:miter;stroke-opacity:1;font-family:Bitstream Vera Sans"><tspan
         x="120"
         y="552.36218"
         id="tspan3225">IEEE/ANSI</tspan></text>
    <text
       x="120"
       y="812.36218"
       id="text3227"
       xml:space="preserve"
       style="font-size:40px;font-style:normal;font-weight:normal;fill:#000000;fill-opacity:1;stroke:none;stroke-width:1px;stroke-linecap:butt;stroke-linejoin:miter;stroke-opacity:1;font-family:Bitstream Vera Sans"><tspan
         x="120"
         y="812.36218"
         id="tspan3229">IEEE/ANSI</tspan></text>
  </g>
</svg>
