<?xml version="1.0" encoding="UTF-8" standalone="no"?>
<!-- Created with Inkscape (http://www.inkscape.org/) -->

<svg
   xmlns:dc="http://purl.org/dc/elements/1.1/"
   xmlns:cc="http://creativecommons.org/ns#"
   xmlns:rdf="http://www.w3.org/1999/02/22-rdf-syntax-ns#"
   xmlns:svg="http://www.w3.org/2000/svg"
   xmlns="http://www.w3.org/2000/svg"
   xmlns:sodipodi="http://sodipodi.sourceforge.net/DTD/sodipodi-0.dtd"
   xmlns:inkscape="http://www.inkscape.org/namespaces/inkscape"
   version="1.0"
   width="44"
   height="51.000004"
   id="svg2"
   sodipodi:version="0.32"
   inkscape:version="0.91 r13725"
   sodipodi:docname="Transformer two secondary windings.svg"
   inkscape:output_extension="org.inkscape.output.svg.inkscape">
  <metadata
     id="metadata2445">
    <rdf:RDF>
      <cc:Work
         rdf:about="">
        <dc:format>image/svg+xml</dc:format>
        <dc:type
           rdf:resource="http://purl.org/dc/dcmitype/StillImage" />
        <dc:title></dc:title>
      </cc:Work>
    </rdf:RDF>
  </metadata>
  <sodipodi:namedview
     inkscape:window-height="1057"
     inkscape:window-width="1920"
     inkscape:pageshadow="2"
     inkscape:pageopacity="0.0"
     guidetolerance="10.0"
     gridtolerance="10.0"
     objecttolerance="10.0"
     borderopacity="1.0"
     bordercolor="#666666"
     pagecolor="#ffffff"
     id="base"
     showgrid="true"
     inkscape:zoom="5.6568542"
     inkscape:cx="-8.5067666"
     inkscape:cy="28.707913"
     inkscape:window-x="-8"
     inkscape:window-y="-8"
     inkscape:current-layer="g4154"
     inkscape:snap-intersection-paths="true"
     inkscape:object-nodes="true"
     inkscape:snap-smooth-nodes="true"
     inkscape:window-maximized="1"
     fit-margin-top="0"
     fit-margin-left="0"
     fit-margin-right="0"
     fit-margin-bottom="0">
    <inkscape:grid
       type="xygrid"
       id="grid4138"
       originx="-24"
       originy="-446.5" />
  </sodipodi:namedview>
  <defs
     id="defs4" />
  <g
     id="g4145"
     transform="translate(-24,-2.5000017)">
    <g
       id="g4154">
      <g
         id="g4161">
        <path
           d="m 24,4.0000019 12,0 L 36,4 c 0,0 6,0 6,6 0,6 -6,6 -6,6 0,0 6,0 6,6 0,6 -6,6 -6,6 0,0 6,0 6,6 0,6 -6,6 -6,6 0,0 6,0 6,6 0,6 -6,6 -6,6 l -1,2e-6 -11,0"
           style="fill:none;fill-opacity:0.75;fill-rule:evenodd;stroke:#000000;stroke-width:1;stroke-linecap:butt;stroke-linejoin:miter;stroke-miterlimit:4;stroke-dasharray:none;stroke-opacity:1"
           id="path3124"
           inkscape:connector-curvature="0"
           sodipodi:nodetypes="cccscscscsccc" />
        <path
           d="m 68,53.000002 -12,0 c 0,0 -6,0 -6,-6 0,-6 6,-6 6,-6 0,0 -6,0 -6,-6 0,-6 6,-6 6,-6 l 12,2e-6"
           style="fill:none;fill-opacity:0.75;fill-rule:evenodd;stroke:#000000;stroke-width:1;stroke-linecap:butt;stroke-linejoin:miter;stroke-miterlimit:4;stroke-dasharray:none;stroke-opacity:1"
           id="path3126"
           inkscape:connector-curvature="0"
           sodipodi:nodetypes="cscscc" />
        <path
           sodipodi:nodetypes="cc"
           d="M 44,3.0000055 44,53.000006"
           style="fill:none;fill-opacity:0.75;fill-rule:evenodd;stroke:#000000;stroke-width:1;stroke-linecap:square;stroke-linejoin:miter;stroke-miterlimit:4;stroke-dasharray:none;stroke-opacity:1"
           id="path3128"
           inkscape:connector-curvature="0" />
        <path
           sodipodi:nodetypes="cc"
           d="M 48,3.0000055 48,53.000006"
           style="fill:none;fill-opacity:0.75;fill-rule:evenodd;stroke:#000000;stroke-width:1;stroke-linecap:square;stroke-linejoin:miter;stroke-miterlimit:4;stroke-dasharray:none;stroke-opacity:1"
           id="path3130"
           inkscape:connector-curvature="0" />
        <path
           d="m 68,27.000004 -12,0 c 0,0 -6,0 -6,-6 0,-6 6,-6 6,-6 0,0 -6,0 -6,-6.0000001 0,-6.0000003 6,-6.0000003 6,-6.0000003 l 12,2e-6"
           style="fill:none;fill-opacity:0.75;fill-rule:evenodd;stroke:#000000;stroke-width:1;stroke-linecap:butt;stroke-linejoin:miter;stroke-miterlimit:4;stroke-dasharray:none;stroke-opacity:1"
           id="path3126-3"
           inkscape:connector-curvature="0"
           sodipodi:nodetypes="cscscc" />
      </g>
    </g>
  </g>
</svg>
